<svg width="12" height="12" viewBox="0 0 12 12" fill="none" xmlns="http://www.w3.org/2000/svg">
<g opacity="0.8">
<path d="M11.2118 11.7307V11.7303H11.2145V7.69602C11.2145 5.72244 10.7897 4.20215 8.48243 4.20215C7.37326 4.20215 6.62893 4.81081 6.32505 5.38786H6.29297V4.3864H4.10535V11.7303H6.38326V8.09385C6.38326 7.1364 6.56476 6.21056 7.75047 6.21056C8.91876 6.21056 8.93617 7.30323 8.93617 8.15527V11.7307H11.2118Z" fill="#121212"/>
<path d="M0.395874 4.38672H2.67654V11.7306H0.395874V4.38672Z" fill="#121212"/>
<path d="M1.53515 0.730469C0.805941 0.730469 0.214233 1.32218 0.214233 2.05138C0.214233 2.78059 0.805941 3.38467 1.53515 3.38467C2.26436 3.38467 2.85606 2.78059 2.85606 2.05138C2.85561 1.32218 2.2639 0.730469 1.53515 0.730469V0.730469Z" fill="#121212"/>
</g>
</svg>
