<svg width="13" height="10" viewBox="0 0 13 10" fill="none" xmlns="http://www.w3.org/2000/svg">
<path opacity="0.8" d="M4.69104 9.79626C4.17212 9.79626 3.638 9.75747 3.10069 9.67972C2.15431 9.54264 1.19631 9.0857 0.925227 8.94888L0.214233 8.59005L0.984003 8.35638C1.82546 8.10099 2.33733 7.94253 2.97096 7.69441C2.3365 7.4108 1.84752 6.90061 1.61214 6.24109L1.43307 5.73927L1.57992 5.75998C1.44066 5.63042 1.33071 5.49893 1.24548 5.37935C0.942347 4.95435 0.781856 4.43503 0.816005 3.99L0.849696 3.55199L1.13378 3.65357C1.01394 3.44466 0.927332 3.22155 0.876429 2.98772C0.752376 2.41744 0.856196 1.81159 1.16885 1.2818L1.41631 0.862461L1.74727 1.2294C2.79399 2.39006 4.11975 3.07856 5.69326 3.28012C5.62899 2.87118 5.67714 2.47652 5.83654 2.12276C6.02211 1.71086 6.35225 1.36158 6.79097 1.11261C7.27821 0.836178 7.86908 0.70223 8.45474 0.735442C9.0761 0.770683 9.64025 0.985592 10.0883 1.35735C10.3071 1.30487 10.4683 1.24884 10.6862 1.17312C10.8173 1.12757 10.966 1.07585 11.152 1.01669L11.8376 0.798656L11.3905 1.97723C11.42 1.97495 11.4504 1.97301 11.4822 1.97174L12.2142 1.94115L11.7816 2.48699C11.7567 2.51826 11.7504 2.52714 11.7416 2.53939C11.7068 2.5879 11.6634 2.64824 11.0695 3.38026C10.9208 3.56357 10.8465 3.80231 10.8604 4.05263C10.913 5.00387 10.7866 5.86452 10.4844 6.61057C10.1985 7.3164 9.7556 7.922 9.16802 8.41055C8.44092 9.01496 7.51377 9.42881 6.41221 9.64042C5.87187 9.7442 5.29162 9.79626 4.69104 9.79626Z" fill="#121212"/>
</svg>
