<svg width="21" height="21" viewBox="0 0 21 21" fill="none" xmlns="http://www.w3.org/2000/svg">
<path d="M20.5112 19.5633L19.339 6.22018C19.3114 5.90133 19.0033 5.65469 18.6328 5.65469H2.75401C2.38356 5.65469 2.07545 5.90133 2.04782 6.2208L0.865662 19.6851C0.850788 19.8546 0.918785 20.0223 1.05265 20.1471C1.18652 20.272 1.37493 20.343 1.57184 20.343H19.8157C19.8199 20.343 19.8249 20.343 19.8298 20.343C20.2208 20.343 20.5382 20.0688 20.5382 19.7303C20.5382 19.6728 20.5289 19.6165 20.5112 19.5633ZM2.3354 19.1189L3.41061 6.87871H17.9762L19.0514 19.1189H2.3354Z" fill="#404040"/>
<path d="M10.6934 0.765923C7.56908 0.765923 5.02698 2.96304 5.02698 5.66323V8.10271C5.02698 8.44053 5.3443 8.71472 5.73528 8.71472C6.12626 8.71472 6.44358 8.44053 6.44358 8.10271V5.66323C6.44358 3.63748 8.34963 1.98994 10.6934 1.98994C13.0372 1.98994 14.9432 3.63748 14.9432 5.66323V8.10271C14.9432 8.44053 15.2605 8.71472 15.6515 8.71472C16.0425 8.71472 16.3598 8.44053 16.3598 8.10271V5.66323C16.3598 2.96304 13.8177 0.765923 10.6934 0.765923Z" fill="#404040"/>
</svg>
