<svg width="22" height="21" viewBox="0 0 22 21" fill="none" xmlns="http://www.w3.org/2000/svg">
<path d="M18.2154 13.1487C17.077 12.0826 15.722 11.2934 14.2436 10.8156C15.827 9.79428 16.8673 8.085 16.8673 6.15222C16.8673 3.03186 14.1565 0.493233 10.8246 0.493233C7.49276 0.493233 4.78203 3.03186 4.78203 6.15222C4.78203 8.085 5.8223 9.79428 7.40575 10.8156C5.92735 11.2934 4.57234 12.0826 3.43392 13.1487C1.45978 14.9976 0.372559 17.4557 0.372559 20.0703H2.0057C2.0057 15.5162 5.96185 11.8112 10.8246 11.8112C15.6874 11.8112 19.6436 15.5162 19.6436 20.0703H21.2767C21.2767 17.4557 20.1895 14.9976 18.2154 13.1487ZM10.8246 10.2818C8.39327 10.2818 6.41517 8.42928 6.41517 6.15222C6.41517 3.87517 8.39327 2.02269 10.8246 2.02269C13.256 2.02269 15.2341 3.87517 15.2341 6.15222C15.2341 8.42928 13.256 10.2818 10.8246 10.2818Z" fill="#404040"/>
</svg>
